<?xml version="1.0" encoding="UTF-8" standalone="no"?>
<!DOCTYPE svg PUBLIC "-//W3C//DTD SVG 1.1//EN" "http://www.w3.org/Graphics/SVG/1.1/DTD/svg11.dtd">
<svg width="100%" height="100%" viewBox="0 0 723 303" version="1.1" xmlns="http://www.w3.org/2000/svg" xmlns:xlink="http://www.w3.org/1999/xlink" xml:space="preserve" xmlns:serif="http://www.serif.com/" style="fill-rule:evenodd;clip-rule:evenodd;stroke-linejoin:round;stroke-miterlimit:2;">
    <g transform="matrix(1,0,0,1,-36,-295)">
        <g transform="matrix(1,0,0,1,-218,141)">
            <path d="M374.921,184.855L366.584,264.072L480.609,212.249C451.807,187.751 412.777,177.233 374.921,184.855ZM358.555,188.875C355.149,190.089 351.75,191.414 348.344,192.93C315.258,207.971 291.885,235.773 281.378,267.88L346.667,314.688L358.555,188.875ZM307.335,390.248L380.1,357.213L277.358,283.593C275.916,291.181 275.172,298.942 275.166,306.748L275.166,306.899C275.166,324.104 278.728,341.562 286.299,358.225C291.785,370.225 298.947,380.943 307.335,390.248ZM440.321,424.743C444.13,423.424 447.943,421.959 451.645,420.275C485.541,404.882 509.217,376.124 519.338,343.038L453.68,297.913L440.321,424.743ZM424.665,428.965L433.053,349.742L319.027,401.577C347.785,426.068 386.81,436.586 424.665,428.965ZM523.096,327.336L420.454,256.803L493.314,223.672C501.444,232.826 508.311,243.288 513.64,254.98C524.364,278.454 527.109,303.605 523.096,327.336Z" style="fill:rgb(236,25,80);"/>
        </g>
        <g transform="matrix(1,0,0,1,-218,141)">
            <path d="M353.852,237.624C285.382,283.593 318.244,390.142 400.006,390.142C481.717,390.142 514.674,283.666 446.165,237.624C418.47,219.021 381.531,219.031 353.852,237.624Z" style="fill:white;"/>
        </g>
        <g transform="matrix(1,0,0,1,-218,141)">
            <path d="M365.114,254.539C313.357,289.285 338.207,369.822 400.006,369.822C461.766,369.822 486.682,289.341 434.893,254.539C413.974,240.47 386.043,240.481 365.114,254.539Z" style="fill:rgb(213,213,215);"/>
        </g>
        <g transform="matrix(1,0,0,1,-218,141)">
            <path d="M372.165,265.124C330.87,292.841 350.693,357.106 400.006,357.106C449.285,357.106 469.164,292.892 427.841,265.124C411.139,253.906 388.861,253.906 372.165,265.124Z" style="fill:rgb(95,95,96);"/>
        </g>
        <g transform="matrix(1,0,0,1,-218,141)">
            <path d="M375.447,270.033C339.012,294.497 356.497,351.196 400.006,351.196C443.486,351.196 461.021,294.541 424.564,270.033C409.836,260.142 390.176,260.152 375.447,270.033Z" style="fill:rgb(67,69,68);"/>
        </g>
        <g transform="matrix(1,0,0,1,-218,141)">
            <path d="M386.373,286.456C366.165,300.021 375.866,331.479 400.006,331.479C424.123,331.479 433.857,300.043 413.627,286.456C405.452,280.965 394.548,280.965 386.373,286.456Z" style="fill:rgb(33,31,30);"/>
        </g>
        <g transform="matrix(1,0,0,1,-218,141)">
            <path d="M384.494,298.629C374.944,292.227 379.529,277.358 390.941,277.358C402.343,277.358 406.939,292.215 397.378,298.629C393.514,301.229 388.358,301.229 384.494,298.629Z" style="fill:rgb(186,188,190);"/>
        </g>
        <g transform="matrix(1,0,0,1,-218,141)">
            <path d="M411.01,331.178C406.308,328.024 408.566,320.716 414.175,320.716C419.789,320.716 422.048,328.024 417.34,331.178C415.45,332.464 412.906,332.464 411.01,331.178Z" style="fill:white;"/>
        </g>
        <g transform="matrix(1,0,0,1,-10,-119.989305)">
            <g transform="matrix(128,0,0,128,735.52,614.136)">
            </g>
            <text x="340px" y="614.136px" style="font-family:'DINCondensed-Bold', 'DIN Condensed';font-weight:700;font-stretch:condensed;font-size:128px;fill:rgb(236,25,80);">OpenCFTV</text>
        </g>
    </g>
</svg>
